<svg width="34" height="34" viewBox="0 0 34 34" fill="none" xmlns="http://www.w3.org/2000/svg">
<path d="M30.4512 25.3838C30.3245 24.774 29.9661 24.2531 29.4418 23.9167C28.9176 23.5805 28.2949 23.472 27.6876 23.6108L24.8733 24.2552V23.1047C25.4377 22.573 26.0254 21.8788 26.4434 21.2443C27.1763 20.1318 27.695 18.91 27.985 17.6137C28.3299 16.0714 28.3373 14.4387 28.0063 12.8915C27.9453 12.6068 27.6649 12.4251 27.3802 12.4863C27.0954 12.5471 26.9141 12.8274 26.9748 13.1123C27.2744 14.5116 27.2678 15.9886 26.9557 17.3834C26.6937 18.5547 26.2248 19.6586 25.5626 20.6641C25.3662 20.9621 25.1281 21.2748 24.8733 21.5735V15.7282C24.8733 15.437 24.6372 15.2009 24.346 15.2009H20.1744V9.56944C20.1744 9.27899 19.9393 9.04313 19.6489 9.0421L14.95 9.02624C14.9493 9.02624 14.9489 9.02624 14.9483 9.02624C14.8086 9.02624 14.6748 9.08144 14.5761 9.18011C14.4768 9.27899 14.421 9.4133 14.421 9.55358V12.483H10.2488C9.9577 12.483 9.72142 12.7191 9.72142 13.0104V18.2325H8.54644V17.5163C8.54644 17.2252 8.31037 16.9891 8.01909 16.9891H7.47815C7.38607 16.4822 7.33272 15.9672 7.32015 15.453C7.28926 14.2029 7.48742 12.9797 7.90889 11.817C8.00714 11.546 8.11879 11.2757 8.24053 11.0141C8.36351 10.75 8.24898 10.4363 7.9851 10.3133C7.72102 10.1907 7.40729 10.3048 7.28452 10.5689C7.14959 10.8586 7.026 11.1577 6.91744 11.4576C6.45107 12.744 6.23189 14.0972 6.26567 15.479C6.27824 15.9841 6.32644 16.4896 6.40822 16.9891H4.02734C3.73607 16.9891 3.5 17.2252 3.5 17.5165V26.7858C3.5 27.0771 3.73607 27.3131 4.02734 27.3131H8.01909C8.31037 27.3131 8.54644 27.0771 8.54644 26.7858V26.2844H10.5302L18.5658 29.4361C19.316 29.7305 20.1019 29.8786 20.8918 29.8786C21.4186 29.8786 21.9476 29.8127 22.4685 29.6802L28.7668 28.0794C29.9624 27.7756 30.7021 26.5915 30.4512 25.3838ZM23.8188 16.2556V24.4966L22.409 24.8194C22.2574 24.854 22.1041 24.8814 21.95 24.9028C21.3625 24.9838 20.7631 24.9667 20.1818 24.8515C20.1793 24.8509 20.1768 24.8505 20.1744 24.8499V24.0502C20.5765 23.4503 20.7098 22.6898 20.499 21.9956C20.4403 21.802 20.3569 21.6151 20.2508 21.4427C20.2267 21.4036 20.2016 21.3653 20.1754 21.3278C20.1752 21.3272 20.1748 21.3267 20.1744 21.3261V16.2554H23.8188V16.2556ZM15.4757 10.0828L19.1199 10.0949V20.4886L17.0832 19.6456L15.4757 18.9801V10.0828ZM10.7761 13.5377H14.4203V18.5431L13.7663 18.2725C13.7023 18.2459 13.6337 18.2323 13.5647 18.2323H10.7761V13.5377ZM7.49175 26.2584H4.55469V18.0436H7.04268C7.04371 18.0436 7.04495 18.0438 7.04618 18.0438C7.04721 18.0438 7.04804 18.0436 7.04907 18.0436H7.49175V26.2584ZM28.507 27.0573L22.2088 28.6581C21.1215 28.9343 19.995 28.8636 18.9508 28.4543L10.8225 25.2662C10.7611 25.2421 10.6958 25.2299 10.6299 25.2299H8.54644V19.2872H13.4596L16.8717 20.6995L18.7388 21.4724C19.3994 21.7464 19.7156 22.5213 19.4447 23.1811C19.3904 23.3136 19.323 23.4394 19.2336 23.5517C18.9034 23.9684 18.3598 24.1522 17.8514 24.0286C17.8473 24.0275 17.8431 24.0265 17.839 24.0255C17.8085 24.0178 17.7783 24.009 17.7482 23.9991L14.1999 22.635C14.1711 22.6239 14.1559 22.6181 14.1559 22.6181C13.8841 22.5135 13.5791 22.6492 13.4744 22.9211C13.37 23.1928 13.5055 23.4981 13.7774 23.6026C13.7774 23.6026 15.7781 24.3717 17.3036 24.9601C17.3343 24.972 17.3648 24.9831 17.3955 24.9934L18.567 25.4439C18.9211 25.5801 19.2736 25.7156 19.6421 25.8098C20.2679 25.9696 20.9174 26.0339 21.5626 25.9987C21.9263 25.9789 22.2895 25.9286 22.6446 25.8475L24.4638 25.4312C24.4656 25.4308 24.4675 25.4299 24.4693 25.4295L27.923 24.6389C28.2516 24.5637 28.5888 24.6224 28.8723 24.8043C29.1561 24.9864 29.35 25.2684 29.4186 25.5984C29.5545 26.2521 29.1541 26.8929 28.507 27.0573Z" fill="#2A3135"/>
<path d="M10.2436 7.96127C10.3697 7.96127 10.4962 7.91636 10.5969 7.82531C11.5379 6.97538 12.6616 6.29745 13.8471 5.86466C15.1315 5.39582 16.5394 5.1958 17.919 5.28644C18.9063 5.35133 19.8736 5.56206 20.794 5.91266C21.0659 6.01627 21.3708 5.87991 21.4744 5.60758C21.5782 5.33546 21.4417 5.0308 21.1693 4.92718C20.1509 4.53909 19.0806 4.30591 17.9882 4.23402C16.4634 4.1339 14.9063 4.35514 13.4854 4.87404C12.1738 5.35277 10.9306 6.10279 9.89014 7.04253C9.67385 7.23782 9.65696 7.57132 9.85224 7.78741C9.95627 7.90276 10.0996 7.96127 10.2436 7.96127Z" fill="#2A3135"/>
<path d="M22.2147 11.7248C22.3147 11.8115 22.4378 11.8539 22.5604 11.8539C22.7077 11.8539 22.8544 11.7925 22.9588 11.6727L27.2974 6.67834C27.4886 6.45855 27.4651 6.12545 27.2453 5.9345C27.0253 5.74354 26.6924 5.76682 26.5015 5.98661L22.1626 10.9809C21.9715 11.2007 21.9949 11.5338 22.2147 11.7248Z" fill="#2A3135"/>
<path d="M26.1029 9.47018C25.3728 9.47018 24.779 10.0641 24.779 10.7941C24.779 11.5241 25.3728 12.118 26.1029 12.118C26.8329 12.118 27.4268 11.5239 27.4268 10.7941C27.4268 10.0641 26.8329 9.47018 26.1029 9.47018ZM26.1029 11.0633C25.9544 11.0633 25.8336 10.9426 25.8336 10.7941C25.8336 10.6458 25.9544 10.5249 26.1029 10.5249C26.2512 10.5249 26.3721 10.6458 26.3721 10.7941C26.3721 10.9426 26.2512 11.0633 26.1029 11.0633Z" fill="#2A3135"/>
<path d="M23.1745 8.29621C23.9045 8.29621 24.4984 7.70233 24.4984 6.97228C24.4984 6.24224 23.9045 5.64836 23.1745 5.64836C22.4444 5.64836 21.8506 6.24224 21.8506 6.97228C21.8506 7.70233 22.4444 8.29621 23.1745 8.29621ZM23.1745 6.70284C23.323 6.70284 23.4437 6.82376 23.4437 6.97228C23.4437 7.1206 23.323 7.24152 23.1745 7.24152C23.026 7.24152 22.9052 7.1206 22.9052 6.97228C22.9052 6.82376 23.026 6.70284 23.1745 6.70284Z" fill="#2A3135"/>
<path d="M8.36887 9.20051C8.45333 9.40321 8.66118 9.53711 8.88139 9.52557C9.09912 9.51424 9.28987 9.36696 9.35723 9.16014C9.42521 8.95146 9.35105 8.71375 9.17658 8.58047C8.9988 8.44492 8.74914 8.43648 8.56292 8.56028C8.35631 8.69768 8.2735 8.97165 8.36887 9.20051Z" fill="#2A3135"/>
</svg>
