<svg width="34" height="34" viewBox="0 0 34 34" fill="none" xmlns="http://www.w3.org/2000/svg">
<path d="M30.05 10.7H27.1898C28.9313 9.29902 29.2073 6.75163 27.8063 5.01019C27.0374 4.05444 25.8766 3.49903 24.65 3.49999H20.7044C19.1 3.50055 17.6473 4.44808 17 5.91604C16.3527 4.44808 14.9 3.50055 13.2956 3.49999H9.35C7.11497 3.49824 5.30175 5.3087 5.3 7.54369C5.29905 8.77027 5.85446 9.9311 6.8102 10.7H3.95C3.70149 10.7 3.5 10.9015 3.5 11.15V15.65C3.5 15.8985 3.70149 16.1 3.95 16.1H4.85V30.05C4.85 30.2985 5.05149 30.5 5.3 30.5H28.7C28.9485 30.5 29.15 30.2985 29.15 30.05V16.1H30.05C30.2985 16.1 30.5 15.8985 30.5 15.65V11.15C30.5 10.9015 30.2985 10.7 30.05 10.7ZM23.8522 4.43734C23.8886 4.43194 23.9246 4.42474 23.9611 4.42024C24.075 4.40719 24.1897 4.40044 24.3044 4.39999H24.65C26.3889 4.40195 27.7981 5.81113 27.8 7.54999C27.7981 9.28884 26.3889 10.698 24.65 10.7H23.593C25.3327 9.29807 25.6065 6.75129 24.2046 5.01159C24.0459 4.81472 23.8692 4.6332 23.6767 4.46929C23.7347 4.45714 23.7932 4.44634 23.8522 4.43734ZM22.6844 4.86934C24.1691 5.76793 24.6443 7.7 23.7456 9.18472C23.175 10.1276 22.1521 10.7026 21.05 10.7H19.4881L21.4186 6.28729C21.684 5.69525 22.1262 5.19992 22.6844 4.86934ZM19.4989 11.6H22.5719L24.6973 15.8511L26.1719 18.8H24.65C24.5084 18.8 24.375 18.8667 24.29 18.98L23.3954 20.1725L21.2557 15.4655L19.4989 11.6ZM20.1469 15.2H19.25V13.2272L20.1469 15.2ZM11.3156 4.86934C11.8738 5.19992 12.3161 5.69525 12.5815 6.28729L14.512 10.7H12.95C11.2145 10.704 9.80439 9.30043 9.80034 7.56495C9.79776 6.4629 10.3727 5.43999 11.3156 4.86934ZM14.5012 11.6L12.7462 15.4637L10.6046 20.1725L9.71001 18.98C9.62501 18.8667 9.49164 18.8 9.35 18.8H7.8281L9.305 15.8511L11.4281 11.6H14.5012ZM6.2 7.54999C6.20197 5.81113 7.61115 4.40195 9.35 4.39999H9.6956C9.81036 4.40044 9.92499 4.40719 10.039 4.42024C10.0754 4.42474 10.1114 4.43194 10.1479 4.43734C10.2068 4.44634 10.2653 4.45714 10.3234 4.46929C8.62196 5.91744 8.41665 8.47069 9.86475 10.1721C10.0286 10.3646 10.2102 10.5414 10.4071 10.7H9.35C7.61115 10.698 6.20197 9.28884 6.2 7.54999ZM4.4 15.2V11.6H10.4219L8.6219 15.2H4.4ZM14.75 29.6H5.75V16.1H8.1719L6.69725 19.0488C6.58616 19.2711 6.67633 19.5414 6.89863 19.6525C6.96118 19.6837 7.03008 19.7 7.1 19.7H9.125L10.34 21.32C10.425 21.4333 10.5584 21.5 10.7 21.5C10.7163 21.5 10.7325 21.4991 10.7486 21.4973C10.9062 21.4798 11.043 21.3806 11.1086 21.2363L13.445 16.1H14.75V29.6ZM14.75 15.2H13.8532L14.75 13.2272V15.2ZM13.4059 5.92684C13.1438 5.33053 12.7411 4.80662 12.2323 4.39999H13.2956C14.5471 4.39999 15.6798 5.1408 16.1815 6.28729L16.5086 7.03564L15.2 10.0272L13.4059 5.92684ZM18.35 29.6H15.65V11.6H18.35V29.6ZM15.8881 10.7L17.8186 6.28729C18.3202 5.1408 19.453 4.39999 20.7044 4.39999H21.77C21.2612 4.80662 20.8584 5.33053 20.5964 5.92684L18.5057 10.7H15.8881ZM28.25 29.6H19.25V16.1H20.555L22.8905 21.2363C22.9562 21.3806 23.0929 21.4798 23.2505 21.4973C23.2669 21.4991 23.2835 21.5 23.3 21.5C23.4417 21.5 23.575 21.4333 23.66 21.32L24.875 19.7H26.9C27.1485 19.7013 27.3511 19.501 27.3525 19.2525C27.3529 19.1818 27.3366 19.1121 27.305 19.0488L25.8281 16.1H28.25V29.6ZM29.6 15.2H25.3781L23.5781 11.6H29.6V15.2Z" fill="#2A3135"/>
</svg>
